<mxfile host="Electron" agent="Mozilla/5.0 (Windows NT 10.0; Win64; x64) AppleWebKit/537.36 (KHTML, like Gecko) draw.io/24.7.17 Chrome/128.0.6613.36 Electron/32.0.1 Safari/537.36" version="24.7.17" pages="2">
  <diagram name="Page-1" id="BctMKEN2n9FMg7V64K0X">
    <mxGraphModel dx="2074" dy="1196" grid="1" gridSize="10" guides="1" tooltips="1" connect="1" arrows="1" fold="1" page="1" pageScale="1" pageWidth="850" pageHeight="1100" math="0" shadow="0">
      <root>
        <mxCell id="0" />
        <mxCell id="1" parent="0" />
        <mxCell id="euk6aUcKor3xB4L52wtq-7" style="edgeStyle=orthogonalEdgeStyle;rounded=0;orthogonalLoop=1;jettySize=auto;html=1;exitX=0.5;exitY=1;exitDx=0;exitDy=0;entryX=0.5;entryY=0;entryDx=0;entryDy=0;" parent="1" source="euk6aUcKor3xB4L52wtq-1" target="euk6aUcKor3xB4L52wtq-2" edge="1">
          <mxGeometry relative="1" as="geometry" />
        </mxCell>
        <mxCell id="euk6aUcKor3xB4L52wtq-1" value="Start" style="ellipse;whiteSpace=wrap;html=1;fillColor=#f8cecc;strokeColor=#b85450;" parent="1" vertex="1">
          <mxGeometry x="345" y="20" width="120" height="80" as="geometry" />
        </mxCell>
        <mxCell id="4l5yXN4VAU8YOzWL8iX6-1" style="edgeStyle=orthogonalEdgeStyle;rounded=0;orthogonalLoop=1;jettySize=auto;html=1;entryX=0.5;entryY=0;entryDx=0;entryDy=0;" parent="1" source="euk6aUcKor3xB4L52wtq-2" target="euk6aUcKor3xB4L52wtq-3" edge="1">
          <mxGeometry relative="1" as="geometry" />
        </mxCell>
        <mxCell id="euk6aUcKor3xB4L52wtq-2" value="input - cust_last_name" style="shape=parallelogram;perimeter=parallelogramPerimeter;whiteSpace=wrap;html=1;fixedSize=1;fillColor=#d5e8d4;strokeColor=#82b366;" parent="1" vertex="1">
          <mxGeometry x="83.75" y="210" width="180" height="50" as="geometry" />
        </mxCell>
        <mxCell id="euk6aUcKor3xB4L52wtq-9" style="edgeStyle=orthogonalEdgeStyle;rounded=0;orthogonalLoop=1;jettySize=auto;html=1;exitX=0.5;exitY=1;exitDx=0;exitDy=0;entryX=0.5;entryY=0;entryDx=0;entryDy=0;" parent="1" source="euk6aUcKor3xB4L52wtq-3" target="euk6aUcKor3xB4L52wtq-4" edge="1">
          <mxGeometry relative="1" as="geometry" />
        </mxCell>
        <mxCell id="euk6aUcKor3xB4L52wtq-3" value="imput - num_bathrooms" style="shape=parallelogram;perimeter=parallelogramPerimeter;whiteSpace=wrap;html=1;fixedSize=1;fillColor=#d5e8d4;strokeColor=#82b366;" parent="1" vertex="1">
          <mxGeometry x="88.75" y="300" width="170" height="50" as="geometry" />
        </mxCell>
        <mxCell id="euk6aUcKor3xB4L52wtq-10" style="edgeStyle=orthogonalEdgeStyle;rounded=0;orthogonalLoop=1;jettySize=auto;html=1;entryX=0.5;entryY=0;entryDx=0;entryDy=0;" parent="1" source="euk6aUcKor3xB4L52wtq-4" target="euk6aUcKor3xB4L52wtq-5" edge="1">
          <mxGeometry relative="1" as="geometry" />
        </mxCell>
        <mxCell id="euk6aUcKor3xB4L52wtq-4" value="imput - num_other_rooms" style="shape=parallelogram;perimeter=parallelogramPerimeter;whiteSpace=wrap;html=1;fixedSize=1;fillColor=#d5e8d4;strokeColor=#82b366;" parent="1" vertex="1">
          <mxGeometry x="81.25" y="400" width="185" height="50" as="geometry" />
        </mxCell>
        <mxCell id="UMHbaMhjKiPpOKwEO6LF-3" style="edgeStyle=orthogonalEdgeStyle;rounded=0;orthogonalLoop=1;jettySize=auto;html=1;exitX=0.5;exitY=1;exitDx=0;exitDy=0;entryX=0.5;entryY=0;entryDx=0;entryDy=0;" parent="1" source="euk6aUcKor3xB4L52wtq-5" target="UMHbaMhjKiPpOKwEO6LF-1" edge="1">
          <mxGeometry relative="1" as="geometry" />
        </mxCell>
        <mxCell id="euk6aUcKor3xB4L52wtq-5" value="base_charge = $40" style="rounded=0;whiteSpace=wrap;html=1;fillColor=#e1d5e7;strokeColor=#9673a6;" parent="1" vertex="1">
          <mxGeometry x="92.5" y="510" width="162.5" height="50" as="geometry" />
        </mxCell>
        <mxCell id="UMHbaMhjKiPpOKwEO6LF-5" style="edgeStyle=orthogonalEdgeStyle;rounded=0;orthogonalLoop=1;jettySize=auto;html=1;exitX=0.5;exitY=1;exitDx=0;exitDy=0;entryX=0.5;entryY=0;entryDx=0;entryDy=0;" parent="1" source="UMHbaMhjKiPpOKwEO6LF-1" target="UMHbaMhjKiPpOKwEO6LF-4" edge="1">
          <mxGeometry relative="1" as="geometry" />
        </mxCell>
        <mxCell id="UMHbaMhjKiPpOKwEO6LF-1" value="bathroom_cost = $15*num_bathrooms" style="rounded=0;whiteSpace=wrap;html=1;fillColor=#e1d5e7;strokeColor=#9673a6;" parent="1" vertex="1">
          <mxGeometry x="93.75" y="620" width="160" height="50" as="geometry" />
        </mxCell>
        <mxCell id="2c19fkWZzkib5bNexF9o-3" style="edgeStyle=orthogonalEdgeStyle;rounded=0;orthogonalLoop=1;jettySize=auto;html=1;entryX=0.5;entryY=0;entryDx=0;entryDy=0;" parent="1" source="UMHbaMhjKiPpOKwEO6LF-4" target="4l5yXN4VAU8YOzWL8iX6-2" edge="1">
          <mxGeometry relative="1" as="geometry" />
        </mxCell>
        <mxCell id="UMHbaMhjKiPpOKwEO6LF-4" value="other_room_cost = $10 + num_other_rooms" style="rounded=0;whiteSpace=wrap;html=1;fillColor=#e1d5e7;strokeColor=#9673a6;" parent="1" vertex="1">
          <mxGeometry x="96.25" y="720" width="155" height="50" as="geometry" />
        </mxCell>
        <mxCell id="2c19fkWZzkib5bNexF9o-2" style="edgeStyle=orthogonalEdgeStyle;rounded=0;orthogonalLoop=1;jettySize=auto;html=1;exitX=1;exitY=0.5;exitDx=0;exitDy=0;entryX=0;entryY=0.5;entryDx=0;entryDy=0;" parent="1" source="4l5yXN4VAU8YOzWL8iX6-2" target="2c19fkWZzkib5bNexF9o-1" edge="1">
          <mxGeometry relative="1" as="geometry" />
        </mxCell>
        <mxCell id="4l5yXN4VAU8YOzWL8iX6-2" value="total_charge = base_charge + bathroom_cost+other_room_cost" style="rounded=0;whiteSpace=wrap;html=1;fillColor=#e1d5e7;strokeColor=#9673a6;" parent="1" vertex="1">
          <mxGeometry x="66.88" y="830" width="213.75" height="50" as="geometry" />
        </mxCell>
        <mxCell id="2c19fkWZzkib5bNexF9o-6" style="edgeStyle=orthogonalEdgeStyle;rounded=0;orthogonalLoop=1;jettySize=auto;html=1;entryX=0.5;entryY=1;entryDx=0;entryDy=0;" parent="1" source="2c19fkWZzkib5bNexF9o-1" target="2c19fkWZzkib5bNexF9o-5" edge="1">
          <mxGeometry relative="1" as="geometry" />
        </mxCell>
        <mxCell id="2c19fkWZzkib5bNexF9o-1" value="output-cust_last_name" style="shape=parallelogram;perimeter=parallelogramPerimeter;whiteSpace=wrap;html=1;fixedSize=1;fillColor=#d5e8d4;strokeColor=#82b366;" parent="1" vertex="1">
          <mxGeometry x="540" y="825" width="170" height="60" as="geometry" />
        </mxCell>
        <mxCell id="RI_b7tEPGrS9yu7tjvUP-1" style="edgeStyle=orthogonalEdgeStyle;rounded=0;orthogonalLoop=1;jettySize=auto;html=1;exitX=0.5;exitY=0;exitDx=0;exitDy=0;entryX=0.5;entryY=1;entryDx=0;entryDy=0;" edge="1" parent="1" source="2c19fkWZzkib5bNexF9o-5" target="2c19fkWZzkib5bNexF9o-7">
          <mxGeometry relative="1" as="geometry" />
        </mxCell>
        <mxCell id="2c19fkWZzkib5bNexF9o-5" value="output - num_bathroom = bathroom_cost" style="shape=parallelogram;perimeter=parallelogramPerimeter;whiteSpace=wrap;html=1;fixedSize=1;fillColor=#d5e8d4;strokeColor=#82b366;" parent="1" vertex="1">
          <mxGeometry x="542.5" y="715" width="165" height="55" as="geometry" />
        </mxCell>
        <mxCell id="2c19fkWZzkib5bNexF9o-9" style="edgeStyle=orthogonalEdgeStyle;rounded=0;orthogonalLoop=1;jettySize=auto;html=1;entryX=0.5;entryY=1;entryDx=0;entryDy=0;" parent="1" source="2c19fkWZzkib5bNexF9o-7" target="2c19fkWZzkib5bNexF9o-8" edge="1">
          <mxGeometry relative="1" as="geometry" />
        </mxCell>
        <mxCell id="2c19fkWZzkib5bNexF9o-7" value="output - num_other_room = other_room_cost" style="shape=parallelogram;perimeter=parallelogramPerimeter;whiteSpace=wrap;html=1;fixedSize=1;fillColor=#d5e8d4;strokeColor=#82b366;" parent="1" vertex="1">
          <mxGeometry x="540" y="610" width="170" height="60" as="geometry" />
        </mxCell>
        <mxCell id="2c19fkWZzkib5bNexF9o-11" style="edgeStyle=orthogonalEdgeStyle;rounded=0;orthogonalLoop=1;jettySize=auto;html=1;exitX=0.5;exitY=0;exitDx=0;exitDy=0;entryX=0.5;entryY=1;entryDx=0;entryDy=0;" parent="1" source="2c19fkWZzkib5bNexF9o-8" target="2c19fkWZzkib5bNexF9o-10" edge="1">
          <mxGeometry relative="1" as="geometry">
            <mxPoint x="625" y="410" as="targetPoint" />
          </mxGeometry>
        </mxCell>
        <mxCell id="2c19fkWZzkib5bNexF9o-8" value="output - total_charge" style="shape=parallelogram;perimeter=parallelogramPerimeter;whiteSpace=wrap;html=1;fixedSize=1;fillColor=#d5e8d4;strokeColor=#82b366;" parent="1" vertex="1">
          <mxGeometry x="537.5" y="490" width="175" height="60" as="geometry" />
        </mxCell>
        <mxCell id="2c19fkWZzkib5bNexF9o-10" value="End" style="ellipse;whiteSpace=wrap;html=1;fillColor=#f8cecc;strokeColor=#b85450;" parent="1" vertex="1">
          <mxGeometry x="565" y="360" width="120" height="80" as="geometry" />
        </mxCell>
      </root>
    </mxGraphModel>
  </diagram>
  <diagram id="7xXMPYFg7A6Bsg43f6bb" name="Page-2">
    <mxGraphModel dx="2074" dy="1196" grid="1" gridSize="10" guides="1" tooltips="1" connect="1" arrows="1" fold="1" page="1" pageScale="1" pageWidth="850" pageHeight="1100" math="0" shadow="0">
      <root>
        <mxCell id="0" />
        <mxCell id="1" parent="0" />
        <mxCell id="mBLVny4Uo7_mS3mfz7h4-1" value="cust_last_name - Customer Last name&lt;div&gt;num_bathrooms - Number of bathrooms&lt;/div&gt;&lt;div&gt;num_other_rooms - Number of other rooms&lt;/div&gt;&lt;div&gt;base_charge - $40&lt;/div&gt;&lt;div&gt;bathroom_cost - $15*num_bathrooms&lt;/div&gt;&lt;div&gt;other_room_cost - $10*num_other_rooms&lt;/div&gt;&lt;div&gt;total_charge - Total of all charges&lt;/div&gt;" style="shape=process;whiteSpace=wrap;html=1;backgroundOutline=1;fillColor=#dae8fc;strokeColor=#6c8ebf;" parent="1" vertex="1">
          <mxGeometry x="90" y="90" width="480" height="540" as="geometry" />
        </mxCell>
      </root>
    </mxGraphModel>
  </diagram>
</mxfile>
